<mxfile host="app.diagrams.net" modified="2023-05-18T15:25:07.599Z" agent="Mozilla/5.0 (Windows NT 10.0; Win64; x64) AppleWebKit/537.36 (KHTML, like Gecko) Chrome/113.0.0.0 Safari/537.36" etag="F1O8axtdsBOLNfs_ajuk" version="21.1.8" type="github">
  <diagram name="Page-1" id="Y0Pdd-mIHy3cXeVaDeFe">
    <mxGraphModel dx="1147" dy="605" grid="1" gridSize="10" guides="1" tooltips="1" connect="1" arrows="1" fold="1" page="1" pageScale="1" pageWidth="850" pageHeight="1100" math="0" shadow="0">
      <root>
        <mxCell id="0" />
        <mxCell id="1" parent="0" />
        <mxCell id="Ixi7HSsfpkx965SrjLeR-10" value="" style="edgeStyle=orthogonalEdgeStyle;rounded=0;orthogonalLoop=1;jettySize=auto;html=1;" edge="1" parent="1" source="Ixi7HSsfpkx965SrjLeR-1" target="Ixi7HSsfpkx965SrjLeR-8">
          <mxGeometry relative="1" as="geometry" />
        </mxCell>
        <mxCell id="Ixi7HSsfpkx965SrjLeR-1" value="User Wallet&amp;nbsp;" style="rounded=1;whiteSpace=wrap;html=1;" vertex="1" parent="1">
          <mxGeometry x="175" y="340" width="120" height="60" as="geometry" />
        </mxCell>
        <mxCell id="Ixi7HSsfpkx965SrjLeR-4" value="" style="edgeStyle=orthogonalEdgeStyle;rounded=0;orthogonalLoop=1;jettySize=auto;html=1;" edge="1" parent="1" source="Ixi7HSsfpkx965SrjLeR-3" target="Ixi7HSsfpkx965SrjLeR-1">
          <mxGeometry relative="1" as="geometry" />
        </mxCell>
        <mxCell id="Ixi7HSsfpkx965SrjLeR-3" value="" style="shape=image;html=1;verticalAlign=top;verticalLabelPosition=bottom;labelBackgroundColor=#ffffff;imageAspect=0;aspect=fixed;image=https://cdn4.iconfinder.com/data/icons/48-bubbles/48/07.Wallet-128.png" vertex="1" parent="1">
          <mxGeometry x="208" y="200" width="54" height="54" as="geometry" />
        </mxCell>
        <mxCell id="Ixi7HSsfpkx965SrjLeR-12" style="edgeStyle=orthogonalEdgeStyle;rounded=0;orthogonalLoop=1;jettySize=auto;html=1;entryX=1;entryY=0.5;entryDx=0;entryDy=0;" edge="1" parent="1" source="Ixi7HSsfpkx965SrjLeR-5" target="Ixi7HSsfpkx965SrjLeR-9">
          <mxGeometry relative="1" as="geometry">
            <Array as="points">
              <mxPoint x="615" y="450" />
            </Array>
          </mxGeometry>
        </mxCell>
        <mxCell id="Ixi7HSsfpkx965SrjLeR-5" value="System Wallet" style="rounded=1;whiteSpace=wrap;html=1;" vertex="1" parent="1">
          <mxGeometry x="555" y="340" width="120" height="60" as="geometry" />
        </mxCell>
        <mxCell id="Ixi7HSsfpkx965SrjLeR-6" value="" style="edgeStyle=orthogonalEdgeStyle;rounded=0;orthogonalLoop=1;jettySize=auto;html=1;" edge="1" parent="1" source="Ixi7HSsfpkx965SrjLeR-7" target="Ixi7HSsfpkx965SrjLeR-5">
          <mxGeometry relative="1" as="geometry" />
        </mxCell>
        <mxCell id="Ixi7HSsfpkx965SrjLeR-7" value="" style="shape=image;html=1;verticalAlign=top;verticalLabelPosition=bottom;labelBackgroundColor=#ffffff;imageAspect=0;aspect=fixed;image=https://cdn4.iconfinder.com/data/icons/48-bubbles/48/07.Wallet-128.png" vertex="1" parent="1">
          <mxGeometry x="588" y="200" width="54" height="54" as="geometry" />
        </mxCell>
        <mxCell id="Ixi7HSsfpkx965SrjLeR-11" value="" style="edgeStyle=orthogonalEdgeStyle;rounded=0;orthogonalLoop=1;jettySize=auto;html=1;" edge="1" parent="1" source="Ixi7HSsfpkx965SrjLeR-8" target="Ixi7HSsfpkx965SrjLeR-5">
          <mxGeometry relative="1" as="geometry" />
        </mxCell>
        <mxCell id="Ixi7HSsfpkx965SrjLeR-8" value="Approve" style="rounded=1;whiteSpace=wrap;html=1;" vertex="1" parent="1">
          <mxGeometry x="369" y="340" width="120" height="60" as="geometry" />
        </mxCell>
        <mxCell id="Ixi7HSsfpkx965SrjLeR-13" style="edgeStyle=orthogonalEdgeStyle;rounded=0;orthogonalLoop=1;jettySize=auto;html=1;entryX=0.5;entryY=1;entryDx=0;entryDy=0;startArrow=classic;startFill=1;" edge="1" parent="1" source="Ixi7HSsfpkx965SrjLeR-9" target="Ixi7HSsfpkx965SrjLeR-1">
          <mxGeometry relative="1" as="geometry" />
        </mxCell>
        <mxCell id="Ixi7HSsfpkx965SrjLeR-9" value="TransferFrom" style="rounded=1;whiteSpace=wrap;html=1;" vertex="1" parent="1">
          <mxGeometry x="369" y="420" width="120" height="60" as="geometry" />
        </mxCell>
        <mxCell id="Ixi7HSsfpkx965SrjLeR-14" value="Time controller" style="rounded=1;whiteSpace=wrap;html=1;" vertex="1" parent="1">
          <mxGeometry x="555" y="420" width="120" height="60" as="geometry" />
        </mxCell>
      </root>
    </mxGraphModel>
  </diagram>
</mxfile>
